<svg width="40" height="40" viewBox="0 0 40 40" fill="none" xmlns="http://www.w3.org/2000/svg">
<path d="M26.4865 13.2431V26.081C26.4865 26.7355 26.3387 27.3479 26.0431 27.918C25.7475 28.4881 25.3421 28.9878 24.8269 29.4171C24.3117 29.8465 23.712 30.1843 23.0279 30.4306C22.3438 30.677 21.6048 30.8037 20.8108 30.8107C20.0254 30.8107 19.2906 30.6875 18.6064 30.4412C17.9223 30.1949 17.3227 29.857 16.8075 29.4277C16.2923 28.9983 15.8869 28.4986 15.5912 27.9285C15.2956 27.3584 15.1436 26.7426 15.1352 26.081V12.5675C15.1352 12.1029 15.2407 11.6666 15.4519 11.2583C15.663 10.8501 15.9544 10.4947 16.326 10.192C16.6977 9.8894 17.1284 9.64658 17.6183 9.46358C18.1081 9.28058 18.6318 9.18909 19.1892 9.18909C19.7466 9.18909 20.2703 9.27707 20.7602 9.45302C21.25 9.62898 21.6765 9.8718 22.0397 10.1815C22.4029 10.4912 22.6943 10.8501 22.9139 11.2583C23.1335 11.6666 23.2433 12.1029 23.2433 12.5675V26.081C23.2433 26.3625 23.1799 26.6264 23.0532 26.8728C22.9265 27.1191 22.7534 27.3338 22.5338 27.5168C22.3142 27.6998 22.0566 27.8441 21.761 27.9496C21.4654 28.0552 21.1487 28.108 20.8108 28.108C20.473 28.108 20.1563 28.0552 19.8607 27.9496C19.5651 27.8441 19.3075 27.6998 19.0879 27.5168C18.8683 27.3338 18.6951 27.1191 18.5684 26.8728C18.4418 26.6264 18.3784 26.3625 18.3784 26.081V14.5945H20V26.081C20 26.264 20.0803 26.4223 20.2407 26.5561C20.4012 26.6898 20.5912 26.7567 20.8108 26.7567C21.0304 26.7567 21.2205 26.6898 21.3809 26.5561C21.5414 26.4223 21.6216 26.264 21.6216 26.081V12.5675C21.6216 12.2859 21.5583 12.022 21.4316 11.7757C21.3049 11.5293 21.1318 11.3147 20.9122 11.1317C20.6926 10.9487 20.435 10.8044 20.1394 10.6988C19.8438 10.5932 19.5271 10.5404 19.1892 10.5404C18.8514 10.5404 18.5347 10.5932 18.239 10.6988C17.9434 10.8044 17.6858 10.9487 17.4662 11.1317C17.2466 11.3147 17.0735 11.5293 16.9468 11.7757C16.8201 12.022 16.7568 12.2859 16.7568 12.5675V26.081C16.7568 26.5455 16.8624 26.9819 17.0735 27.3901C17.2847 27.7983 17.576 28.1538 17.9477 28.4564C18.3193 28.759 18.75 29.0019 19.2399 29.1849C19.7298 29.3679 20.2534 29.4594 20.8108 29.4594C21.3683 29.4594 21.8919 29.3714 22.3818 29.1954C22.8716 29.0195 23.2982 28.7766 23.6613 28.467C24.0245 28.1573 24.3159 27.7983 24.5355 27.3901C24.7551 26.9819 24.8649 26.5455 24.8649 26.081V13.2431H26.4865Z" fill="#080808"/>
</svg>
